<?xml version="1.0" encoding="utf-8"?>
<!-- Generator: Adobe Illustrator 17.1.0, SVG Export Plug-In . SVG Version: 6.00 Build 0)  -->
<!DOCTYPE svg PUBLIC "-//W3C//DTD SVG 1.1//EN" "http://www.w3.org/Graphics/SVG/1.1/DTD/svg11.dtd">
<svg version="1.1" id="Layer_1" xmlns="http://www.w3.org/2000/svg" xmlns:xlink="http://www.w3.org/1999/xlink" x="0px" y="0px"
	 viewBox="0 0 217.4 64.3" enable-background="new 0 0 217.4 64.3" xml:space="preserve">
<g>
	<path d="M80.6,40.6c0.5-0.8,1.1-1.6,1.6-2.4c2.8-4.3,6.8-5.6,11.6-4.1c0.8,0.2,1.9-0.2,2.7-0.6c2.4-1.6,4.7-2.4,7.5-1
		c0.6,0.3,1.7,0.3,2.4-0.1c3-1.7,5.8-1.9,8.4,0.5c0.4-0.2,0.7-0.3,0.8-0.5c0.8-4.1,4.1-4.9,7.5-5.4c2.7-0.4,5.5-0.6,8.2-0.4
		c6.6,0.6,8.8,4.7,5.5,10.6c1.3,0.1,2.5,0.3,3.7,0.4c2.5,0.3,5,0.4,7.4,1c0.9,0.2,2.1,1.4,2.3,2.2c0.1,0.9-0.7,2.5-1.4,2.8
		c-2.7,1.1-5.5,2.3-8.4,2.7c-4.4,0.5-9,0.4-13.5,0.6c-0.8,0-1.7,0.2-2.4,0.6c-4,2-8.3,2.9-12.7,3.4c-1.5,0.2-3.1,0.8-4.3,1.7
		c-3.2,2.2-6.5,2.8-10.4,2.2c-4.3-0.7-8.5-0.6-12.4,2.2c-2.3,1.7-5.2,1.4-7.9,0.6c-1-0.3-2.2-0.5-3-0.1c-3.8,1.7-7.4,2-10.8-1
		c-0.5-0.4-1.7-0.4-2.5-0.2c-3.4,1-6.7,1.4-9.3-1.4c-2.7-2.9-2.3-6.6-0.7-9.8c1-2.2,2.6-4.3,4.4-5.9c0.9-0.9,2.9-0.6,4.3-1
		c1-0.2,2.1-0.4,3-0.8c0.6-0.3,1-1.3,1.6-1.5c1.7-0.4,3.5-0.8,5.2-0.4c0.6,0.1,1.2,2.5,1,3.6c-0.6,3.4-1.5,6.8-2.6,10.1
		c-0.3,1.1-1.4,2-2,3.1c-0.4,0.6-1.3,1.6-1.1,2c0.4,0.8,1.3,1.4,2.1,1.8c0.7,0.3,1.6,0.3,2.5,0.3c3.7-0.1,4.1-0.8,3.2-4.3
		c-1.4-5.2-0.4-10.3,2.2-14.9c0.6-1,2.4-1.9,3.6-1.9c1.8,0,2.1,1.8,2.2,3.4c0,0.6,0.2,1.2,0.3,1.9C80.1,40.4,80.3,40.5,80.6,40.6z
		 M127.6,28.6c-2.2,0.4-4.7,0.8-7.2,1.5c-0.9,0.3-2,1.4-2.2,2.3c-0.1,0.6,1.1,2,1.9,2.3c4,1.1,8.1,2.2,12.3,2.8c2.5,0.3,3.2-2,3.6-4
		c0.4-2-0.6-3.4-2.6-3.9C131.7,29,129.9,28.9,127.6,28.6z M82,44.8c0,2.9,2.6,7.1,4.4,7.2c1.7,0.1,4-3.4,4.5-6.3
		c0.4-2.5,1-5,1.7-7.5c0.6-2.3-0.1-3.2-2.4-2.9C86.3,35.9,82.1,40.8,82,44.8z M114.7,36.8c-0.8-1.4-1.2-2.8-2.1-3.3
		c-2.4-1.3-6.4,1-6.9,3.6c-0.6,3-1.5,5.9-2,8.9c-0.1,0.7,0.2,1.9,0.7,2.3c1.7,1.3,4.8,0.9,5.7-1C111.9,43.9,113.2,40.4,114.7,36.8z
		 M93.2,48.9c0.4,0.6,1.3,2.5,1.4,2.4c1.8-0.7,3.6-1.5,5.1-2.7c0.5-0.4,0.6-1.8,0.4-2.5c-1.1-3.7-0.8-7,2-9.9
		c0.3-0.4,0.9-0.8,0.9-1.2c-0.1-0.6-0.6-1.5-0.9-1.6c-1.9-0.2-6.5,3.1-7,5C94.3,41.8,93.9,45.1,93.2,48.9z M58.9,42.6
		c0.5-2.6-0.2-3.2-2.1-2.3c-3.8,1.9-6.1,7.3-4.9,11.3c0.8,2.8,5.5,4.1,7.5,2.1c0.4-0.4,0.6-1.2,0.5-1.8
		C59.7,48.8,59.3,45.7,58.9,42.6z M130.4,44.5c6-0.1,11.8,0,17.1-3.1c-0.8-0.7-1.5-1-2.2-1c-3.2-0.2-6.3-0.3-9.5-0.4
		C133.3,39.8,131.4,41.3,130.4,44.5z M121.8,45.8c-1.8-1.6-3.7-2.7-2.5-5.3c1.3-3,0.6-4.3-3.2-5.5c0.4,4.9-0.8,9.2-3.7,13.1
		C115.9,48.3,118.9,47.7,121.8,45.8z M62.6,51c0.3-0.2,0.8-0.2,1-0.5c2.6-3.6,4-7.7,4.2-12c0.1-1.9-1.2-2.3-2.9-1.1
		C61.9,39.5,60.5,47.3,62.6,51z M74.4,52.3c2.6-4,3.6-8.3,3.5-12.9c0-0.6-0.7-1.6-1.2-1.6c-0.5-0.1-1.5,0.5-1.7,1.1
		C73,43.2,73.3,47.8,74.4,52.3z M131.3,39.8c-3.3-0.5-6.2-1-9-1.3c-0.4,0-1,0.5-1.2,1c-0.9,2.4,1.2,5.2,3.8,4.8
		C127.4,43.9,129.5,42.6,131.3,39.8z M76.2,55.7c2.5-0.2,4.4-0.2,6.2-0.6c1.7-0.3,2.2-1.2,0.9-2.8c-1.1-1.3-1.9-2.9-2.9-4.3
		c-0.3-0.4-0.8-0.7-1.3-1.1C78.2,49.9,77.3,52.5,76.2,55.7z M99,52.3c0.1,0.3,0.2,0.6,0.3,0.9c1.6-0.4,3.3-0.8,4.8-1.4
		c0.4-0.2,0.9-1.1,0.8-1.5c-0.2-0.4-1-0.9-1.5-0.9C101.4,49.4,99.9,50.5,99,52.3z M101.9,44.2c0.3,0,0.6,0.1,0.9,0.1
		c0.4-1.9,0.8-3.9,1.3-5.8C101.2,39.9,100.8,41.8,101.9,44.2z"/>
	<path d="M200.4,45.8c0,0.7,0,0.9-0.1,1c-3,0.8-3.9,3.5-5.4,5.8c-0.9,1.3-3.2,1.7-5,2.4c-1.2,0.4-2.4,0.4-3.9,0.7c0,1.2,0,2.4,0,4.3
		c-1-0.8-1.7-1.1-2-1.6c-1.1-1.9-2.8-1.9-4.7-1.8c-5.8,0.3-11.6,0.4-17.5,0.4c-1.1,0-2.3-1-3.4-1.5c0.5-1.1,0.8-2.4,1.7-3.1
		c1.9-1.6,4-3,6.1-4.3c1-0.7,2.1-1.2,3.7-2.1c-1.2-0.6-1.9-1.1-2.7-1.4c-0.6-0.3-1.4-0.2-1.9-0.6c-0.5-0.5-0.8-1.3-1.2-1.9
		c0.7-0.1,1.4-0.5,2-0.3c2,0.5,4,1.3,5.9,1.8c1.7,0.5,3.6,1.1,4.4-1.3c0.9-2.7-0.3-5.3-2.5-6.1c-4.8-1.8-9.8-3.3-14.4-5.5
		c-6.1-2.9-7.5-8.9-3.7-14.1c0.3-0.5,0.7-0.9,1.2-1.3c5-4.4,17-4.8,22.1-0.6c1.8,1.5,2.4,0.3,3.3-0.9c4.3-6.2,10.2-10,17.5-11.4
		c2.8-0.5,6-0.2,8.9,0.4c4.3,1,6.6,5.4,5.5,10.1c-0.6,2.5-1.7,5-3.2,7.2c-5.3,8.1-13.2,13.3-21.4,17.9c-0.6,0.3-1.2,0.6-1.7,1
		c-0.1,0.1-0.2,0.3-0.4,0.5C191.4,42.6,194.2,47.6,200.4,45.8z M203.7,4c-2.2,0.5-4.4,0.7-6.5,1.4c-14.5,5.3-18.7,18-18.7,29.5
		c0,0.4,0.1,0.9,0.4,1.1c1.2,1.3,5.9,2.1,7.5,1.1c5.1-3.2,10.4-6.3,15.1-10c3.3-2.6,6.3-6,8.7-9.5c1.5-2.2,2.1-5.3,2-8
		C212.2,5.9,209.2,4.3,203.7,4z M175.9,34.9c0.3-2,0.5-3.1,0.7-4.1c0.6-3.2,1-6.4,1.9-9.5c1.1-4,0.2-6-3.8-6.9
		c-5.1-1.2-10.1-0.3-14.8,1.9c-4.7,2.3-5.2,8.6-0.7,11.1C164.3,30.3,170,32.3,175.9,34.9z M180.3,54.3c0-0.3,0.1-0.7,0.1-1
		c-2.3-2-4.6-4.1-7.1-5.9c-0.5-0.4-1.8-0.4-2.4,0c-2.6,1.5-5,3.2-7.4,5c-0.7,0.5-1.1,1.3-1.7,2c0.1,0.3,0.3,0.6,0.4,0.9
		C168.2,55,174.2,54.6,180.3,54.3z M184.8,54.2c2.8-0.9,5.4-1.6,7.9-2.6c0.7-0.3,1.1-1.5,1.6-2.2c-0.8-0.5-1.5-1.2-2.3-1.3
		c-2.7-0.4-5.4-0.6-8.2-0.8c-0.9-0.1-1.9,0-2.9,0.1c0.2,1,0.2,2,0.5,3c0.4,1,0.9,2,1.6,2.8C183.5,53.5,184.2,53.8,184.8,54.2z
		 M191.3,45.9c-3.8-5.6-8.9-6.2-12.5-1.4C183.2,44.9,187.2,45.4,191.3,45.9z M178.7,50.3c0.7-3.6-0.5-4.5-4.3-3.5
		C175.9,48.1,177.2,49.1,178.7,50.3z M177.6,39.6c1,0.8,1.7,1.7,2.1,1.6c0.7-0.3,1.2-1.1,1.8-1.7c-0.6-0.4-1.2-1-1.9-1.1
		C179.1,38.3,178.5,39,177.6,39.6z"/>
	<path d="M36.9,39.4c-0.6,1.1-1.2,2.3-1.8,3.4c-1,2-1.9,4.1-3.2,5.9c-1.9,2.6-3.9,2.4-5.8-0.2c-0.4-0.6-0.9-1.1-1.6-2.1
		c-0.6,1.1-1.1,1.9-1.5,2.8c-1.8,4-4.1,7.6-7.6,10.4c-2.6,2-5.5,3.2-8.8,1.5c-3.2-1.7-4.5-4.3-4.6-8c0-5.3,1.8-9.7,5.3-13.6
		c1.5-1.6,3.3-2.3,5.4-1.6c0.6,0.2,0.9,1,1.4,1.5c-0.5,0.4-1.1,1.1-1.6,1.1C9.6,40,8,41.6,7.2,43.9c-1.1,3.1-2.4,6.3-2.6,9.5
		c-0.3,4.8,4,7.2,8.3,4.9c1.1-0.6,2.2-1.5,3.1-2.5c5-6.2,8.3-13.1,8.7-21.3c0.3-7.3,2-14.3,4.7-21.1c0.1-0.2,0.1-0.5,0.3-0.7
		c0.8-0.9,1.7-1.7,2.5-2.6c0.1,1.2,0.6,2.5,0.4,3.6c-1.8,7.9-3.8,15.6-5.6,23.5c-0.5,2.4-0.4,5-0.3,7.5c0,0.9,0.9,1.8,1.3,2.7
		c1-0.5,2.2-0.8,2.8-1.6c4.3-6.1,7.2-12.9,8.9-20.2c1.1-4.8,2.9-9.5,4.3-14.3c0.2-0.7,0.5-1.5,1-2c0.5-0.4,1.4-0.5,2-0.7
		c0.1,0.6,0.4,1.4,0.2,1.9c-1.8,5.6-3.9,11.1-5.3,16.8c-1.8,7.1-2.8,14.4-0.9,21.7c0.5,1.7,1.9,3.1,2.9,4.7c0.3,0.5,0.5,1,0.8,1.6
		c-0.7,0.2-1.5,0.8-1.9,0.6c-1.1-0.6-2.1-1.3-2.8-2.3c-1.9-2.5-2-5.5-1.9-8.6c0.1-1.9,0-3.7,0-5.6C37.6,39.5,37.3,39.5,36.9,39.4z"
		/>
	<path d="M210.7,54.8c-0.9,0.7-1.5,1.5-1.9,1.4c-0.6-0.2-1.4-0.9-1.6-1.5c-0.1-0.4,0.7-1.1,1.1-1.6C209,53.5,209.7,54,210.7,54.8z"
		/>
</g>
</svg>
